<?xml version="1.0" encoding="utf-8"?>
<!-- Generator: Adobe Illustrator 17.1.0, SVG Export Plug-In . SVG Version: 6.00 Build 0)  -->
<!DOCTYPE svg PUBLIC "-//W3C//DTD SVG 1.1//EN" "http://www.w3.org/Graphics/SVG/1.1/DTD/svg11.dtd">
<svg version="1.1" id="Layer_1" xmlns="http://www.w3.org/2000/svg" xmlns:xlink="http://www.w3.org/1999/xlink" x="0px" y="0px"
	 viewBox="0 0 597 75.9" enable-background="new 0 0 597 75.9" xml:space="preserve">
<g>
	<path fill-rule="evenodd" clip-rule="evenodd" fill="#3C97D3" d="M58.7,47.9c-1,0-2.1,0-3.1,0c-0.3,0-0.5-0.2-0.6-0.4
		c-0.2-0.3-0.4-0.7-0.4-1.1c0-1.6-0.3-3.1-0.1-4.7c0.1-0.5,0.4-0.8,0.8-0.8c1.3,0,2.7,0,4,0c0.4,0,0.8,0,1.2,0
		c0.9,0,1.3,0.4,1.3,1.4c0,1.5,0,3,0,4.4c0,0.9-0.3,1.2-1,1.2C60.1,48,59.4,48,58.7,47.9C58.7,48,58.7,47.9,58.7,47.9z"/>
	<path fill-rule="evenodd" clip-rule="evenodd" fill="#3C97D3" d="M61.9,36.5c0,0.9,0,1.7,0,2.6c0,0.6-0.4,1-0.9,1
		c-1.6-0.1-3.2-0.1-4.9-0.1c-1.5,0-1.5,0-1.5-1.7c0-1.3,0-2.7,0.2-4c0.1-1,0.4-1.3,1.3-1.3c1.7,0,3.4,0,5.1,0.1
		c0.5,0,0.8,0.3,0.8,0.9C61.9,34.8,61.9,35.6,61.9,36.5C61.9,36.5,61.9,36.5,61.9,36.5z"/>
	<path fill-rule="evenodd" clip-rule="evenodd" fill="#3C97D3" d="M66.7,48c-0.8,0-1.6,0-2.4,0c-0.7,0-1-0.4-1-1.2
		c0.1-1.5,0-2.9,0.1-4.4c0-1,0.3-1.4,1.2-1.4c1.7,0,3.3,0,5,0c0.7,0,1.1,0.5,1.1,1.3c0,0.9,0,1.8,0,2.7c0,0.8-0.2,1.6-0.5,2.4
		C70,47.8,69.7,48,69.3,48C68.5,48,67.6,48,66.7,48z"/>
	<path fill-rule="evenodd" clip-rule="evenodd" fill="#3C97D3" d="M67.1,40.1c-0.9,0-1.7,0-2.4,0c-0.9,0-1.2-0.3-1.2-1.3
		c0-1.6,0.1-3.2,0.1-4.8c0-0.5,0.2-0.8,0.7-0.8c1.1,0,2.3,0,3.5,0c0.5,0,0.9,0,1.4,0.1c0.8,0,1.2,0.4,1.3,1.3
		c0.2,1.6,0.3,3.3,0.2,4.9c0,0.5-0.3,0.8-0.7,0.7C68.9,40,67.9,40.1,67.1,40.1z"/>
	<path fill-rule="evenodd" clip-rule="evenodd" fill="#3C97D3" d="M59.2,32c-1.1,0-2.2,0-3.3-0.1c-0.6,0-0.9-0.7-0.7-1.5
		c0.4-1.4,0.7-2.8,1.1-4.2C56.6,25,57,24.9,58,25c1,0,1.9,0,2.9,0.1c0.9,0,1.2,0.4,1.2,1.5c0,1.6,0,3.2-0.2,4.7
		c-0.1,0.7-0.2,0.8-0.9,0.8C60.4,32,59.8,32,59.2,32z"/>
	<path fill-rule="evenodd" clip-rule="evenodd" fill="#3C97D3" d="M63.4,28.8c0-0.7,0-1.3-0.1-1.9c-0.1-1.3,0.1-2.1,1.3-2
		c1,0.1,2,0,2.9,0.1c0.6,0,1,0.4,1.2,1c0.5,1.3,0.9,3,1.2,4.4c0.1,0.4,0.1,0.8,0,1.2c0,0.5-0.3,0.6-0.7,0.6c-1.2-0.1-2.4,0-3.5,0
		c-0.6,0-1.2-0.2-1.8-0.2c-0.3,0-0.4-0.3-0.4-0.5C63.4,30.5,63.4,29.6,63.4,28.8z"/>
	<path fill-rule="evenodd" clip-rule="evenodd" fill="#3C97D3" d="M58.4,49c0.8,0,1.7,0,2.5,0c0.7,0,0.9,0.3,0.9,1
		c0,1.4,0,2.7,0,4.1c0,1.3-0.3,1.6-1.5,1.5c-1,0-2,0-3-0.1c-1.1,0-1.3-0.1-1.6-1.4c-0.3-1.4-0.6-2.8-0.6-4.2c0-0.8,0.1-1,0.8-1
		C56.8,49,57.6,49,58.4,49C58.4,49,58.4,49,58.4,49z"/>
	<path fill-rule="evenodd" clip-rule="evenodd" fill="#3C97D3" d="M66.7,49c0.8,0,1.5,0,2.3,0c0.7,0,0.9,0.3,0.9,1.1
		c-0.1,1.1-0.3,2.2-0.5,3.2c-0.1,0.5-0.3,1-0.4,1.5c-0.2,0.5-0.5,0.8-0.9,0.8c-1.4,0-2.7,0-4.1,0c-0.5,0-0.7-0.3-0.7-0.9
		c0-0.9-0.1-1.8,0.1-2.7c0.1-0.7-0.1-1.4,0.1-2.1c0.1-0.7,0.3-0.9,0.9-0.9C65,49,65.8,49,66.7,49C66.7,49,66.7,49,66.7,49z"/>
	<path fill-rule="evenodd" clip-rule="evenodd" fill="#3C97D3" d="M59.2,56.5c0.6,0,1.2,0,1.7,0c0.6,0,1,0.5,1,1.1
		c0,1.1,0,2.2,0,3.2c0,0.7-0.2,0.7-0.7,0.9c-0.9,0.3-1.8,0-2.7,0c-0.3,0-0.5-0.2-0.7-0.4c-0.5-0.7-0.8-1.6-1-2.5
		c-0.1-0.4-0.2-0.7-0.3-1c-0.2-0.8,0.1-1.3,0.9-1.3c0.1,0,0.1,0,0.2,0C58.1,56.5,58.6,56.5,59.2,56.5z"/>
	<path fill-rule="evenodd" clip-rule="evenodd" fill="#3C97D3" d="M65.9,56.5c0.6,0,1.2,0,1.8,0c0.7,0,0.9,0.5,0.7,1.2
		c-0.3,0.9-0.5,1.8-0.9,2.6c-0.4,1-1,1.5-2,1.5c-0.7,0-1.5,0-2.2-0.1c-0.3-0.1-0.5-0.2-0.5-0.6c0-1.2,0-2.5,0.2-3.7
		c0.1-0.6,0.5-1,1.1-1C64.7,56.5,65.3,56.5,65.9,56.5C65.9,56.5,65.9,56.5,65.9,56.5z"/>
	<path fill-rule="evenodd" clip-rule="evenodd" fill="#3C97D3" d="M51.7,39.8c0,0-0.1,0-0.1,0c-1.3,0-1.8-0.7-1.5-2.2
		c0.1-0.6,0.1-1.2,0.2-1.9c0-0.9,0.1-1.7,0.5-2.5c0.1-0.2,0.3-0.4,0.6-0.4c0.5,0,1-0.1,1.5,0c0.5,0.1,0.8,0.5,0.8,1.1
		c0,0.3,0,0.6-0.1,0.8c-0.2,1.1-0.2,2.2-0.2,3.4C53.4,39.6,53.1,39.8,51.7,39.8z"/>
	<path fill-rule="evenodd" clip-rule="evenodd" fill="#3C97D3" d="M53.4,43.6c0,0.7,0,1.6,0.2,2.4c0,0.2,0,0.3,0,0.5
		c0,1.3-0.3,1.6-1.4,1.4c-0.1,0-0.1,0-0.2,0c-1-0.1-1.4-0.5-1.5-1.7c0-1.2-0.4-2.4-0.4-3.6c0-0.2,0-0.4,0-0.6c0-0.8,0.3-1.1,1-1.1
		c0.5,0,1.1-0.1,1.6,0.2c0.5,0.3,0.7,0.7,0.7,1.3C53.4,42.7,53.4,43.1,53.4,43.6z"/>
	<path fill-rule="evenodd" clip-rule="evenodd" fill="#3C97D3" d="M71.8,38.2c0-0.5,0-1.1-0.2-1.7c-0.2-0.9-0.1-1.7-0.1-2.6
		c0-0.4,0.2-0.6,0.5-0.6c0.4,0,0.7,0,1.1,0c0.8,0,1.2,0.3,1.3,1.2c0,1.5,0.4,2.9,0.3,4.4c-0.1,0.8-0.3,1.2-1.1,1.2
		c-0.4,0-0.7,0-1.1,0c-0.5,0-0.8-0.3-0.8-0.9C71.8,39,71.8,38.7,71.8,38.2z"/>
	<path fill-rule="evenodd" clip-rule="evenodd" fill="#3C97D3" d="M72.6,48c-1.2,0-1.3-0.1-1.2-1.4c0.1-1.4,0.2-2.8,0.3-4.2
		c0-0.7,0.4-1.1,1-1.2c1.9-0.3,1.9,0,1.9,2c-0.1,1.2-0.3,2.3-0.4,3.5C74.1,47.7,73.7,48,72.6,48z"/>
	<path fill-rule="evenodd" clip-rule="evenodd" fill="#3C97D3" d="M52.2,32c-1,0-1.4-0.7-1-1.9c0.4-1.2,0.7-2.3,1.3-3.4
		c0.4-0.7,0.9-1.2,1.5-1.6c0.4-0.2,0.7-0.3,1.1,0c0.3,0.3,0.3,0.8,0.1,1.1c-0.6,1.3-0.7,2.8-1.1,4.2c-0.1,0.3-0.2,0.7-0.3,1
		c-0.1,0.3-0.4,0.5-0.6,0.5C52.9,31.9,52.6,31.9,52.2,32z"/>
	<path fill-rule="evenodd" clip-rule="evenodd" fill="#3C97D3" d="M72.6,32.3c-0.2,0-0.4,0-0.5,0c-0.4,0-0.7-0.2-0.8-0.7
		c-0.3-1.2-0.5-2.3-0.8-3.5c-0.1-0.6-0.5-1.4-0.7-1.9c-0.2-0.6-0.1-0.8,0.4-0.9c0.5-0.1,0.8,0,1.2,0.4c1.1,1.2,1.9,2.9,2.3,4.5
		c0.1,0.2,0.1,0.5,0.2,0.7c0.3,0.9,0,1.5-0.9,1.5C72.8,32.3,72.7,32.3,72.6,32.3C72.6,32.3,72.6,32.3,72.6,32.3z"/>
	<path fill-rule="evenodd" clip-rule="evenodd" fill="#3C97D3" d="M52.5,48.8c1,0,1.3,0.3,1.4,1.4c0.1,0.7,0.3,1.5,0.4,2.2
		c0.1,0.8,0.3,1.5,0.3,2.3c0.1,0.5-0.1,0.7-0.6,0.8c-1.1,0.1-1.4-0.1-1.7-1.3c-0.3-1.1-0.7-2.1-1-3.1c-0.1-0.4-0.2-0.9-0.2-1.4
		c0-0.3,0.2-0.6,0.5-0.7C52,48.9,52.3,48.8,52.5,48.8z"/>
	<path fill-rule="evenodd" clip-rule="evenodd" fill="#3C97D3" d="M72.3,49c1,0,1.3,0.3,1,1.5C73,52,72.5,53.5,71.9,55
		c-0.2,0.6-1.2,0.8-1.6,0.4c-0.2-0.2-0.2-0.4-0.2-0.6c0.1-0.9,0.3-1.8,0.4-2.7c0.1-0.6,0.2-1.1,0.3-1.7C71.2,49.2,71.4,49,72.3,49z"
		/>
	<path fill-rule="evenodd" clip-rule="evenodd" fill="#3C97D3" d="M56.1,59.5c0,0.3,0,0.5-0.2,0.6c-0.2,0.1-0.3,0-0.5-0.1
		c-0.7-0.7-1.2-1.6-1.6-2.5c-0.1-0.3,0-0.5,0.2-0.7c0.2-0.2,0.5-0.3,0.7-0.1C55.6,57.4,56,58.4,56.1,59.5z"/>
	<path fill-rule="evenodd" clip-rule="evenodd" fill="#3C97D3" d="M68.5,59.6c0.2-1.1,0.6-2.1,1.4-2.9c0.3-0.2,0.6-0.3,0.8,0
		c0.2,0.3,0.2,0.6,0,0.9c-0.4,0.8-0.8,1.6-1.5,2.2c-0.2,0.2-0.3,0.3-0.5,0.2C68.6,60,68.5,59.8,68.5,59.6z"/>
	<path fill-rule="evenodd" clip-rule="evenodd" fill="#3C97D3" d="M111,0c1.7,4.5,2.1,9,1.2,13.7c-1,5.6-4,9.6-9.5,11.5
		c-3.8,1.3-7.6,3-11.4,4.2c-5.2,1.7-8.1,4.9-8.6,10.5c-0.4,4.4-0.6,8.9-2.3,13.1c-2.2,5.3-6.1,8.3-11.6,9.7c1.5-1.3,3.1-2.4,4.5-3.7
		c3.1-3.2,4.3-7.1,4-11.5c-0.2-2.9-0.3-5.8-0.6-8.8c-0.6-6.5,2.8-10.6,8.1-13.5c3.3-1.8,7-3,10.5-4.4c5.2-2.1,9.8-4.9,12.9-9.8
		c1.8-2.8,2.2-5.9,2.7-9.1C110.9,1.2,111,0.6,111,0z"/>
	<path fill-rule="evenodd" clip-rule="evenodd" fill="#A1A1A0" d="M83.7,53.8c0.6-3.1,1.7-6.4,1.7-9.6c0-9.3,5-12,11.8-14
		c2.9-0.9,5.9-1.6,8.8-2.6c7.8-2.7,11.1-9,12.7-16.6c0.1-0.6,0.2-1.2,0.3-1.8c0-0.1,0.2-0.2,0.5-0.5c0.3,7.1,0.4,13.8-4.7,19.4
		c-1.9,2.1-4.4,3.2-7.1,3.8c-4.3,1-8.6,1.9-12.8,3.1c-3.7,1-5.5,3.8-6.4,7.5c-0.7,2.9-1.5,5.8-2.5,8.5
		C85.6,52.2,84.3,53.1,83.7,53.8z"/>
	<path fill-rule="evenodd" clip-rule="evenodd" fill="#A1A1A0" d="M74.5,61.8c3.1-1.8,6.1-3.6,9.2-5.5c3.2-2,6.4-2,9.7-0.4
		c1.9,0.9,3.7,1.8,5.6,2.6c3.7,1.7,7.5,1.4,11.3,0.3c1-0.3,2-0.7,3.2-1.1c-6.3,5.9-11.9,7.3-19.5,3.1c-4.3-2.4-8.5-2.7-13-0.7
		c-2.1,0.9-4.3,1.4-6.5,2.1C74.5,62.1,74.5,62,74.5,61.8z"/>
	<path fill-rule="evenodd" clip-rule="evenodd" fill="#3C97D3" d="M124.8,24.8c-0.8,9-6.5,16-16.7,14.2c-5.1-0.9-10.1-1-15.4,0.3
		c2-2.7,4.6-3.7,7.5-3.9c2.5-0.2,4.9-0.2,7.4-0.2c6.9-0.1,12.2-3.1,16-8.9C123.9,25.9,124.2,25.5,124.8,24.8z"/>
	<path fill-rule="evenodd" clip-rule="evenodd" fill="#3C97D3" d="M120.9,47.8c-3.4,6.1-12.5,9.3-19.1,6.8c-2.2-0.9-4.5-1.7-6.7-2.5
		c-2.3-0.8-4.6-0.5-6.8,0.8c0.6-2.9,4.8-5.3,8.2-4.7c1.2,0.2,2.5,0.6,3.6,1.1c6.7,2.9,13.2,2.3,19.6-1.1c0.3-0.2,0.7-0.4,1.1-0.5
		C120.8,47.8,120.9,47.8,120.9,47.8z"/>
	<path fill-rule="evenodd" clip-rule="evenodd" fill="#A1A1A0" d="M123.3,38c-2.6,5.2-6.6,8.7-12.4,9.5c-3.7,0.5-7.2-0.5-10.7-1.7
		c-2.7-0.9-5.4-2-8.4-1.2c1.3-2.2,4.5-3.3,7.7-2.8c2.9,0.5,5.9,1,8.9,1.3C114,43.6,119.1,42.3,123.3,38z"/>
	<path fill-rule="evenodd" clip-rule="evenodd" fill="#3C97D3" d="M80.5,61.9c2.4-1.1,4.8-1.9,7.4-0.8c1.5,0.7,2.9,1.6,4.4,2.3
		c1.8,0.9,3.6,1.8,5.6,2.8c-3.4,1-6.8,0.7-10-0.9C85.5,64.2,83.1,63.1,80.5,61.9z"/>
	<path fill-rule="evenodd" clip-rule="evenodd" fill="#3C97D3" d="M13.7,0c-1.7,4.5-2.1,9-1.2,13.7c1,5.6,4,9.6,9.5,11.5
		c3.8,1.3,7.6,3,11.4,4.2c5.2,1.7,8.1,4.9,8.6,10.5c0.4,4.4,0.6,8.9,2.3,13.1c2.2,5.3,6.1,8.3,11.6,9.7c-1.5-1.3-3.1-2.4-4.5-3.7
		c-3.1-3.2-4.3-7.1-4-11.5c0.2-2.9,0.3-5.8,0.6-8.8c0.6-6.5-2.8-10.6-8.1-13.5c-3.3-1.8-7-3-10.5-4.4c-5.2-2.1-9.8-4.9-12.9-9.8
		c-1.8-2.8-2.2-5.9-2.7-9.1C13.8,1.2,13.8,0.6,13.7,0z"/>
	<path fill-rule="evenodd" clip-rule="evenodd" fill="#A1A1A0" d="M41,53.8c-0.6-3.1-1.7-6.4-1.7-9.6c0-9.3-5-12-11.8-14
		c-2.9-0.9-5.9-1.6-8.8-2.6c-7.8-2.7-11.1-9-12.7-16.6C6,10.4,5.9,9.8,5.8,9.2c0-0.1-0.2-0.2-0.5-0.5C5,15.8,4.9,22.5,9.9,28.1
		c1.9,2.1,4.4,3.2,7.1,3.8c4.3,1,8.6,1.9,12.8,3.1c3.7,1,5.5,3.8,6.4,7.5c0.7,2.9,1.5,5.8,2.5,8.5C39.2,52.2,40.4,53.1,41,53.8z"/>
	<path fill-rule="evenodd" clip-rule="evenodd" fill="#A1A1A0" d="M50.3,61.8c-3.1-1.8-6.1-3.6-9.2-5.5c-3.2-2-6.4-2-9.7-0.4
		c-1.9,0.9-3.7,1.8-5.6,2.6c-3.7,1.7-7.5,1.4-11.3,0.3c-1-0.3-2-0.7-3.2-1.1c6.3,5.9,11.9,7.3,19.5,3.1c4.3-2.4,8.5-2.7,13-0.7
		c2.1,0.9,4.3,1.4,6.5,2.1C50.3,62.1,50.3,62,50.3,61.8z"/>
	<path fill-rule="evenodd" clip-rule="evenodd" fill="#3C97D3" d="M0,24.8c0.8,9,6.5,16,16.7,14.2c5.1-0.9,10.1-1,15.4,0.3
		c-2-2.7-4.6-3.7-7.5-3.9c-2.5-0.2-4.9-0.2-7.4-0.2c-6.9-0.1-12.2-3.1-16-8.9C0.9,25.9,0.5,25.5,0,24.8z"/>
	<path fill-rule="evenodd" clip-rule="evenodd" fill="#3C97D3" d="M3.8,47.8c3.4,6.1,12.5,9.3,19.1,6.8c2.2-0.9,4.5-1.7,6.7-2.5
		c2.3-0.8,4.6-0.5,6.8,0.8c-0.6-2.9-4.8-5.3-8.2-4.7c-1.2,0.2-2.5,0.6-3.6,1.1c-6.7,2.9-13.2,2.3-19.6-1.1c-0.3-0.2-0.7-0.4-1.1-0.5
		C4,47.8,3.9,47.8,3.8,47.8z"/>
	<path fill-rule="evenodd" clip-rule="evenodd" fill="#A1A1A0" d="M1.5,38c2.6,5.2,6.6,8.7,12.4,9.5c3.7,0.5,7.2-0.5,10.7-1.7
		c2.7-0.9,5.4-2,8.4-1.2c-1.3-2.2-4.5-3.3-7.7-2.8c-2.9,0.5-5.9,1-8.9,1.3C10.7,43.6,5.6,42.3,1.5,38z"/>
	<path fill-rule="evenodd" clip-rule="evenodd" fill="#3C97D3" d="M44.3,61.9c-2.4-1.1-4.8-1.9-7.4-0.8c-1.5,0.7-2.9,1.6-4.4,2.3
		c-1.8,0.9-3.6,1.8-5.6,2.8c3.4,1,6.8,0.7,10-0.9C39.3,64.2,41.6,63.1,44.3,61.9z"/>
	<path fill-rule="evenodd" clip-rule="evenodd" fill="#3C97D3" d="M58.4,64.6c-2.7,0-5.2,0.3-7,2.5c-1.1,1.3-2,2.7-3,4
		c-1.2,1.6-2.5,3.2-3.9,4.9c3.5-0.6,6.4-2.2,8.7-5C54.9,68.8,56.6,66.8,58.4,64.6z"/>
	<path fill-rule="evenodd" clip-rule="evenodd" fill="#3C97D3" d="M65.3,64.6c2.7,0,5.2,0.3,7,2.5c1.1,1.3,2,2.7,3,4
		c1.2,1.6,2.5,3.2,3.9,4.9c-3.5-0.6-6.4-2.2-8.7-5C68.8,68.8,67.1,66.8,65.3,64.6z"/>
	<path fill-rule="evenodd" clip-rule="evenodd" fill="#A1A1A0" d="M60,65.9c0,0-2.1,5.5-5.4,8.7c0,0,6.4-2.4,14.6,0.2
		c0,0-4.7-6-5.4-9H60z"/>
	<path fill-rule="evenodd" clip-rule="evenodd" fill="#3C97D3" d="M78.1,13.9c-1.4-0.4-2.8-0.6-4.2-0.5c-0.3,0-0.9,0.1-0.8-0.4
		c0.4-1.1-0.4-0.9-1-1c-0.4,0-0.7,0-1.1-0.1c-3.4-0.5-6.7-0.2-9.8,1.1c-2.5,1-4.4,2.7-5.9,5c-0.9,1.5-1.2,3.1-1.7,4.7
		c-0.1,0.3,0,0.6,0.3,0.7l1.4,0.6h14.8l1.3-0.9c0.1-0.1,0.1-0.3,0.1-0.5c0-0.4,0-0.8,0-1.2c0-2.8,0-3,2.7-3.7c1.4-0.4,3-1.1,4.2,0.5
		c0.3,0.4,0.7,0.2,0.9-0.1C80.8,16.4,80.2,14.5,78.1,13.9z"/>
</g>
<g>
	<path fill="#3D97D3" d="M140.9,66.8V16.6h31.8v3.9h-27.5v18.6h27V43h-27v23.8H140.9z"/>
	<path fill="#3D97D3" d="M215.4,66.8l-5-12.3h-26.5l-5,12.3h-5l20.5-50.1h5.3l20.5,50.1H215.4z M197.2,21.2l-11.8,29.3H209
		L197.2,21.2z"/>
	<path fill="#3D97D3" d="M227.8,66.8V16.6h4.3v46.2h24.3v3.9H227.8z"/>
	<path fill="#3D97D3" d="M261,41.8c0-15.4,11.2-25.9,25.4-25.9c8,0,14,3.5,18.3,8.9l-3.6,2.3c-3.2-4.4-8.6-7.3-14.7-7.3
		c-11.8,0-20.9,8.9-20.9,22c0,12.9,9.1,22,20.9,22c6,0,11.5-2.9,14.7-7.3l3.6,2.3c-4.4,5.5-10.3,8.9-18.3,8.9
		C272.2,67.7,261,57.2,261,41.8z"/>
	<path fill="#3D97D3" d="M311.5,41.8c0-14.7,9.6-25.9,24.4-25.9c14.7,0,24.4,11.3,24.4,25.9s-9.7,25.9-24.4,25.9
		C321.1,67.7,311.5,56.4,311.5,41.8z M355.7,41.8c0-12.8-7.8-22-19.8-22c-12.2,0-19.8,9.2-19.8,22c0,12.6,7.7,22,19.8,22
		C347.9,63.8,355.7,54.4,355.7,41.8z"/>
	<path fill="#3D97D3" d="M406.7,66.8l-31.6-43.1v43.1h-4.3V16.6h4.4l31.4,42.5V16.6h4.3v50.1H406.7z"/>
	<path fill="#A1A09F" d="M423.4,66.8V16.6h31.8v3.9h-27.5v18.6h27V43h-27v23.8H423.4z"/>
	<path fill="#A1A09F" d="M493.5,66.8L479.4,46h-11.1v20.8h-4.3V16.6h18.7c8.6,0,15.3,5.5,15.3,14.7c0,9.1-6.5,14.1-13.9,14.4
		l14.5,21.1H493.5z M493.6,31.3c0-6.3-4.5-10.8-11.1-10.8h-14.1v21.6h14.1C489.1,42.1,493.6,37.6,493.6,31.3z"/>
	<path fill="#A1A09F" d="M545.1,66.8l-5-12.3h-26.5l-5,12.3h-5l20.5-50.1h5.3L550,66.8H545.1z M526.8,21.2L515,50.6h23.7L526.8,21.2
		z"/>
	<path fill="#A1A09F" d="M552.6,41.8c0-15.5,11.4-25.9,25.4-25.9c8.3,0,14.3,3.3,18.9,8.6l-3.2,2.3c-3.5-4.2-9.2-7-15.6-7
		c-11.8,0-20.9,8.9-20.9,22c0,12.9,9.1,22.1,20.9,22.1c6.7,0,12-3.3,14.7-6.1v-12h-18.9v-3.8H597v17.5c-4.4,5-11.1,8.3-19,8.3
		C563.9,67.8,552.6,57.2,552.6,41.8z"/>
</g>
</svg>
